<mxfile host="app.diagrams.net" modified="2022-07-05T09:28:01.855Z" agent="5.0 (Windows NT 10.0; Win64; x64) AppleWebKit/537.36 (KHTML, like Gecko) Chrome/103.0.0.0 Safari/537.36" etag="ArRh0X6xNM7BFX1kBcf-" version="17.4.6" type="github">
  <diagram id="-zWPHJQYayK7DrnN_WTL" name="Page-1">
    <mxGraphModel dx="920" dy="513" grid="1" gridSize="10" guides="1" tooltips="1" connect="1" arrows="1" fold="1" page="1" pageScale="1" pageWidth="827" pageHeight="1169" background="#F2F2F2" math="0" shadow="0">
      <root>
        <mxCell id="0" />
        <mxCell id="1" parent="0" />
        <mxCell id="2tfb3EqtFTx625eSX2Tw-45" value="" style="shape=manualInput;whiteSpace=wrap;html=1;rounded=0;shadow=0;sketch=0;rotation=90;fillColor=#f8cecc;strokeColor=none;" vertex="1" parent="1">
          <mxGeometry x="347.63" y="250" width="57.25" height="412.5" as="geometry" />
        </mxCell>
        <mxCell id="2tfb3EqtFTx625eSX2Tw-46" value="" style="shape=ext;double=1;rounded=0;whiteSpace=wrap;html=1;shadow=0;sketch=0;fillColor=#f8cecc;strokeColor=none;" vertex="1" parent="1">
          <mxGeometry x="170" y="446.37" width="1150" height="173.63" as="geometry" />
        </mxCell>
        <mxCell id="2tfb3EqtFTx625eSX2Tw-33" value="" style="shape=ext;double=1;rounded=0;whiteSpace=wrap;html=1;shadow=0;sketch=0;fillColor=#ffe6cc;strokeColor=none;" vertex="1" parent="1">
          <mxGeometry x="170" y="230" width="1150" height="110" as="geometry" />
        </mxCell>
        <mxCell id="2tfb3EqtFTx625eSX2Tw-32" value="" style="shape=manualInput;whiteSpace=wrap;html=1;rounded=0;shadow=0;sketch=0;rotation=90;fillColor=#ffe6cc;strokeColor=none;" vertex="1" parent="1">
          <mxGeometry x="299" y="60" width="56" height="318" as="geometry" />
        </mxCell>
        <mxCell id="2tfb3EqtFTx625eSX2Tw-4" value="" style="shape=manualInput;whiteSpace=wrap;html=1;rounded=0;shadow=0;sketch=0;rotation=90;fillColor=#fff2cc;strokeColor=none;" vertex="1" parent="1">
          <mxGeometry x="181" y="42" width="56" height="82" as="geometry" />
        </mxCell>
        <mxCell id="2tfb3EqtFTx625eSX2Tw-5" value="" style="shape=ext;double=1;rounded=0;whiteSpace=wrap;html=1;shadow=0;sketch=0;fillColor=#fff2cc;strokeColor=none;" vertex="1" parent="1">
          <mxGeometry x="170" y="70" width="150" height="70" as="geometry" />
        </mxCell>
        <mxCell id="2tfb3EqtFTx625eSX2Tw-39" style="edgeStyle=orthogonalEdgeStyle;rounded=0;orthogonalLoop=1;jettySize=auto;html=1;exitX=0.25;exitY=1;exitDx=0;exitDy=0;fontSize=10;" edge="1" parent="1" source="2tfb3EqtFTx625eSX2Tw-19" target="2tfb3EqtFTx625eSX2Tw-36">
          <mxGeometry relative="1" as="geometry" />
        </mxCell>
        <mxCell id="2tfb3EqtFTx625eSX2Tw-40" style="edgeStyle=orthogonalEdgeStyle;rounded=0;orthogonalLoop=1;jettySize=auto;html=1;exitX=1;exitY=1;exitDx=0;exitDy=0;entryX=0.5;entryY=0;entryDx=0;entryDy=0;fontSize=10;" edge="1" parent="1" source="2tfb3EqtFTx625eSX2Tw-19" target="2tfb3EqtFTx625eSX2Tw-38">
          <mxGeometry relative="1" as="geometry" />
        </mxCell>
        <mxCell id="2tfb3EqtFTx625eSX2Tw-19" value="web service" style="text;strokeColor=none;fillColor=none;html=1;fontSize=14;fontStyle=1;verticalAlign=middle;align=center;rounded=0;shadow=0;sketch=0;arcSize=12;strokeWidth=1;" vertex="1" parent="1">
          <mxGeometry x="190" y="70" width="100" height="70" as="geometry" />
        </mxCell>
        <mxCell id="2tfb3EqtFTx625eSX2Tw-20" value="" style="endArrow=none;dashed=1;html=1;dashPattern=1 3;strokeWidth=2;rounded=0;fontSize=14;" edge="1" parent="1">
          <mxGeometry width="50" height="50" relative="1" as="geometry">
            <mxPoint x="80" y="160" as="sourcePoint" />
            <mxPoint x="1337.619105747768" y="160" as="targetPoint" />
          </mxGeometry>
        </mxCell>
        <mxCell id="2tfb3EqtFTx625eSX2Tw-21" value="SJFBW001" style="text;html=1;strokeColor=none;fillColor=none;align=center;verticalAlign=middle;whiteSpace=wrap;rounded=0;shadow=0;sketch=0;fontSize=14;fontStyle=1;horizontal=1;" vertex="1" parent="1">
          <mxGeometry x="90" y="250" width="60" height="30" as="geometry" />
        </mxCell>
        <mxCell id="2tfb3EqtFTx625eSX2Tw-30" value="PROTAL" style="text;html=1;strokeColor=none;fillColor=none;align=center;verticalAlign=middle;whiteSpace=wrap;rounded=0;shadow=0;sketch=0;fontSize=14;fontStyle=1" vertex="1" parent="1">
          <mxGeometry x="90" y="510" width="60" height="30" as="geometry" />
        </mxCell>
        <mxCell id="2tfb3EqtFTx625eSX2Tw-59" style="edgeStyle=orthogonalEdgeStyle;rounded=0;orthogonalLoop=1;jettySize=auto;html=1;exitX=0.5;exitY=1;exitDx=0;exitDy=0;entryX=0.5;entryY=0;entryDx=0;entryDy=0;fontSize=10;" edge="1" parent="1" source="2tfb3EqtFTx625eSX2Tw-36" target="2tfb3EqtFTx625eSX2Tw-53">
          <mxGeometry relative="1" as="geometry">
            <Array as="points">
              <mxPoint x="266" y="350" />
              <mxPoint x="266" y="350" />
            </Array>
          </mxGeometry>
        </mxCell>
        <mxCell id="2tfb3EqtFTx625eSX2Tw-36" value="P2P_IO_PO_TRACKING&lt;br&gt;（IO及PO跟踪报表）" style="text;html=1;fontSize=10;fontStyle=1;verticalAlign=middle;align=center;rounded=0;shadow=0;sketch=0;arcSize=12;strokeWidth=1;fillColor=#f5f5f5;strokeColor=#666666;fontColor=#333333;" vertex="1" parent="1">
          <mxGeometry x="185.5" y="260" width="160" height="50" as="geometry" />
        </mxCell>
        <mxCell id="2tfb3EqtFTx625eSX2Tw-37" value="SAP" style="text;html=1;strokeColor=none;fillColor=none;align=center;verticalAlign=middle;whiteSpace=wrap;rounded=0;shadow=0;sketch=0;fontSize=14;fontStyle=1" vertex="1" parent="1">
          <mxGeometry x="80" y="90" width="60" height="30" as="geometry" />
        </mxCell>
        <mxCell id="2tfb3EqtFTx625eSX2Tw-60" style="edgeStyle=orthogonalEdgeStyle;rounded=0;orthogonalLoop=1;jettySize=auto;html=1;exitX=0.5;exitY=1;exitDx=0;exitDy=0;fontSize=10;" edge="1" parent="1" source="2tfb3EqtFTx625eSX2Tw-38" target="2tfb3EqtFTx625eSX2Tw-54">
          <mxGeometry relative="1" as="geometry" />
        </mxCell>
        <mxCell id="2tfb3EqtFTx625eSX2Tw-38" value="P2P_SAMPLEWINE_WAREHOUSE&lt;br&gt;（样酒安库查询报表）" style="text;html=1;fontSize=10;fontStyle=1;verticalAlign=middle;align=center;rounded=0;shadow=0;sketch=0;arcSize=12;strokeWidth=1;fillColor=#f5f5f5;strokeColor=#666666;fontColor=#333333;" vertex="1" parent="1">
          <mxGeometry x="360" y="260" width="220" height="50" as="geometry" />
        </mxCell>
        <mxCell id="2tfb3EqtFTx625eSX2Tw-62" style="edgeStyle=orthogonalEdgeStyle;rounded=0;orthogonalLoop=1;jettySize=auto;html=1;exitX=0.5;exitY=1;exitDx=0;exitDy=0;entryX=0.5;entryY=0;entryDx=0;entryDy=0;fontSize=10;" edge="1" parent="1" source="2tfb3EqtFTx625eSX2Tw-41" target="2tfb3EqtFTx625eSX2Tw-47">
          <mxGeometry relative="1" as="geometry" />
        </mxCell>
        <mxCell id="2tfb3EqtFTx625eSX2Tw-41" value="VW_VerificationDetileInfo&lt;br&gt;（核销任务明细表）" style="text;html=1;fontSize=10;fontStyle=1;verticalAlign=middle;align=center;rounded=0;shadow=0;sketch=0;arcSize=12;strokeWidth=1;fillColor=#f5f5f5;strokeColor=#666666;fontColor=#333333;" vertex="1" parent="1">
          <mxGeometry x="600" y="260" width="160" height="50" as="geometry" />
        </mxCell>
        <mxCell id="2tfb3EqtFTx625eSX2Tw-63" style="edgeStyle=orthogonalEdgeStyle;rounded=0;orthogonalLoop=1;jettySize=auto;html=1;exitX=0.5;exitY=1;exitDx=0;exitDy=0;entryX=0.5;entryY=0;entryDx=0;entryDy=0;fontSize=10;" edge="1" parent="1" source="2tfb3EqtFTx625eSX2Tw-42" target="2tfb3EqtFTx625eSX2Tw-49">
          <mxGeometry relative="1" as="geometry" />
        </mxCell>
        <mxCell id="2tfb3EqtFTx625eSX2Tw-42" value="VW_ChargebackDetileInfo&lt;br&gt;（退单明细报表）" style="text;html=1;fontSize=10;fontStyle=1;verticalAlign=middle;align=center;rounded=0;shadow=0;sketch=0;arcSize=12;strokeWidth=1;fillColor=#f5f5f5;fontColor=#333333;strokeColor=#666666;" vertex="1" parent="1">
          <mxGeometry x="770" y="260" width="160" height="50" as="geometry" />
        </mxCell>
        <mxCell id="2tfb3EqtFTx625eSX2Tw-64" style="edgeStyle=orthogonalEdgeStyle;rounded=0;orthogonalLoop=1;jettySize=auto;html=1;exitX=0.5;exitY=1;exitDx=0;exitDy=0;entryX=0.5;entryY=0;entryDx=0;entryDy=0;fontSize=10;" edge="1" parent="1" source="2tfb3EqtFTx625eSX2Tw-43" target="2tfb3EqtFTx625eSX2Tw-50">
          <mxGeometry relative="1" as="geometry" />
        </mxCell>
        <mxCell id="2tfb3EqtFTx625eSX2Tw-43" value="VW_VerificationCashInfo&lt;br&gt;（核销报表-现金）" style="text;strokeColor=#666666;fillColor=#f5f5f5;html=1;fontSize=10;fontStyle=1;verticalAlign=middle;align=center;rounded=0;shadow=0;sketch=0;arcSize=12;strokeWidth=1;fontColor=#333333;" vertex="1" parent="1">
          <mxGeometry x="940" y="260" width="160" height="50" as="geometry" />
        </mxCell>
        <mxCell id="2tfb3EqtFTx625eSX2Tw-65" style="edgeStyle=orthogonalEdgeStyle;rounded=0;orthogonalLoop=1;jettySize=auto;html=1;exitX=0.5;exitY=1;exitDx=0;exitDy=0;fontSize=10;" edge="1" parent="1" source="2tfb3EqtFTx625eSX2Tw-44" target="2tfb3EqtFTx625eSX2Tw-51">
          <mxGeometry relative="1" as="geometry" />
        </mxCell>
        <mxCell id="2tfb3EqtFTx625eSX2Tw-44" value="VW_VerificationSamplewineInfo&lt;br&gt;（核销报表-样酒）" style="text;strokeColor=#666666;fillColor=#f5f5f5;html=1;fontSize=10;fontStyle=1;verticalAlign=middle;align=center;rounded=0;shadow=0;sketch=0;arcSize=12;strokeWidth=1;fontColor=#333333;" vertex="1" parent="1">
          <mxGeometry x="1110" y="260" width="200" height="50" as="geometry" />
        </mxCell>
        <mxCell id="2tfb3EqtFTx625eSX2Tw-66" style="edgeStyle=orthogonalEdgeStyle;rounded=0;orthogonalLoop=1;jettySize=auto;html=1;exitX=0.5;exitY=1;exitDx=0;exitDy=0;entryX=0.5;entryY=0;entryDx=0;entryDy=0;fontSize=10;" edge="1" parent="1" source="2tfb3EqtFTx625eSX2Tw-47" target="2tfb3EqtFTx625eSX2Tw-55">
          <mxGeometry relative="1" as="geometry" />
        </mxCell>
        <mxCell id="2tfb3EqtFTx625eSX2Tw-47" value="P2P_VerificationDetileInfo&lt;br&gt;（核销任务明细表）" style="text;html=1;fontSize=10;fontStyle=1;verticalAlign=middle;align=center;rounded=0;shadow=0;sketch=0;arcSize=12;strokeWidth=1;fillColor=#f5f5f5;strokeColor=#666666;fontColor=#333333;" vertex="1" parent="1">
          <mxGeometry x="600" y="460" width="160" height="50" as="geometry" />
        </mxCell>
        <mxCell id="2tfb3EqtFTx625eSX2Tw-67" style="edgeStyle=orthogonalEdgeStyle;rounded=0;orthogonalLoop=1;jettySize=auto;html=1;exitX=0.5;exitY=1;exitDx=0;exitDy=0;fontSize=10;" edge="1" parent="1" source="2tfb3EqtFTx625eSX2Tw-49" target="2tfb3EqtFTx625eSX2Tw-56">
          <mxGeometry relative="1" as="geometry" />
        </mxCell>
        <mxCell id="2tfb3EqtFTx625eSX2Tw-49" value="P2P_ChargebackDetileInfo&lt;br&gt;（退单明细报表）" style="text;html=1;fontSize=10;fontStyle=1;verticalAlign=middle;align=center;rounded=0;shadow=0;sketch=0;arcSize=12;strokeWidth=1;fillColor=#f5f5f5;fontColor=#333333;strokeColor=#666666;" vertex="1" parent="1">
          <mxGeometry x="770" y="460" width="160" height="50" as="geometry" />
        </mxCell>
        <mxCell id="2tfb3EqtFTx625eSX2Tw-68" style="edgeStyle=orthogonalEdgeStyle;rounded=0;orthogonalLoop=1;jettySize=auto;html=1;exitX=0.5;exitY=1;exitDx=0;exitDy=0;fontSize=10;" edge="1" parent="1" source="2tfb3EqtFTx625eSX2Tw-50" target="2tfb3EqtFTx625eSX2Tw-57">
          <mxGeometry relative="1" as="geometry" />
        </mxCell>
        <mxCell id="2tfb3EqtFTx625eSX2Tw-50" value="P2P_VerificationCashInfo&lt;br&gt;（核销报表-现金）" style="text;strokeColor=#666666;fillColor=#f5f5f5;html=1;fontSize=10;fontStyle=1;verticalAlign=middle;align=center;rounded=0;shadow=0;sketch=0;arcSize=12;strokeWidth=1;fontColor=#333333;" vertex="1" parent="1">
          <mxGeometry x="940" y="460" width="160" height="50" as="geometry" />
        </mxCell>
        <mxCell id="2tfb3EqtFTx625eSX2Tw-69" style="edgeStyle=orthogonalEdgeStyle;rounded=0;orthogonalLoop=1;jettySize=auto;html=1;exitX=0.5;exitY=1;exitDx=0;exitDy=0;fontSize=10;" edge="1" parent="1" source="2tfb3EqtFTx625eSX2Tw-51" target="2tfb3EqtFTx625eSX2Tw-58">
          <mxGeometry relative="1" as="geometry" />
        </mxCell>
        <mxCell id="2tfb3EqtFTx625eSX2Tw-51" value="P2P_VerificationSamplewineInfo&lt;br&gt;（核销报表-样酒）" style="text;strokeColor=#666666;fillColor=#f5f5f5;html=1;fontSize=10;fontStyle=1;verticalAlign=middle;align=center;rounded=0;shadow=0;sketch=0;arcSize=12;strokeWidth=1;fontColor=#333333;" vertex="1" parent="1">
          <mxGeometry x="1110" y="460" width="200" height="50" as="geometry" />
        </mxCell>
        <mxCell id="2tfb3EqtFTx625eSX2Tw-52" value="" style="endArrow=none;dashed=1;html=1;dashPattern=1 3;strokeWidth=2;rounded=0;fontSize=14;" edge="1" parent="1">
          <mxGeometry width="50" height="50" relative="1" as="geometry">
            <mxPoint x="80" y="377.9999999999999" as="sourcePoint" />
            <mxPoint x="1337.6191057477681" y="377.9999999999999" as="targetPoint" />
          </mxGeometry>
        </mxCell>
        <mxCell id="2tfb3EqtFTx625eSX2Tw-76" style="edgeStyle=orthogonalEdgeStyle;rounded=0;orthogonalLoop=1;jettySize=auto;html=1;entryX=0;entryY=0.333;entryDx=0;entryDy=0;entryPerimeter=0;fontSize=10;" edge="1" parent="1" source="2tfb3EqtFTx625eSX2Tw-53" target="2tfb3EqtFTx625eSX2Tw-70">
          <mxGeometry relative="1" as="geometry">
            <Array as="points">
              <mxPoint x="266" y="650" />
              <mxPoint x="930" y="650" />
              <mxPoint x="930" y="660" />
            </Array>
          </mxGeometry>
        </mxCell>
        <mxCell id="2tfb3EqtFTx625eSX2Tw-53" value="P2P_IO_PO_TRACKING_&lt;br&gt;HISTORY&lt;br&gt;（IO及PO跟踪历史报表）" style="text;html=1;fontSize=10;fontStyle=1;verticalAlign=middle;align=center;rounded=0;shadow=0;sketch=0;arcSize=12;strokeWidth=1;fillColor=#f5f5f5;strokeColor=#666666;fontColor=#333333;gradientColor=none;" vertex="1" parent="1">
          <mxGeometry x="181" y="460" width="169" height="50" as="geometry" />
        </mxCell>
        <mxCell id="2tfb3EqtFTx625eSX2Tw-78" style="edgeStyle=orthogonalEdgeStyle;rounded=0;orthogonalLoop=1;jettySize=auto;html=1;exitX=0.5;exitY=1;exitDx=0;exitDy=0;entryX=0;entryY=0;entryDx=86;entryDy=52.5;entryPerimeter=0;fontSize=10;" edge="1" parent="1" source="2tfb3EqtFTx625eSX2Tw-54" target="2tfb3EqtFTx625eSX2Tw-77">
          <mxGeometry relative="1" as="geometry" />
        </mxCell>
        <mxCell id="2tfb3EqtFTx625eSX2Tw-54" value="P2P_SAMPLEWINE_WAREHOUSE_&lt;br&gt;HISOTRY&lt;br&gt;（样酒安库查询历史报表）" style="text;html=1;fontSize=10;fontStyle=1;verticalAlign=middle;align=center;rounded=0;shadow=0;sketch=0;arcSize=12;strokeWidth=1;fillColor=#f5f5f5;strokeColor=#666666;fontColor=#333333;" vertex="1" parent="1">
          <mxGeometry x="361" y="460" width="220" height="50" as="geometry" />
        </mxCell>
        <mxCell id="2tfb3EqtFTx625eSX2Tw-71" style="edgeStyle=orthogonalEdgeStyle;rounded=0;orthogonalLoop=1;jettySize=auto;html=1;exitX=0.5;exitY=1;exitDx=0;exitDy=0;entryX=0;entryY=0.667;entryDx=0;entryDy=0;entryPerimeter=0;fontSize=10;" edge="1" parent="1" source="2tfb3EqtFTx625eSX2Tw-55" target="2tfb3EqtFTx625eSX2Tw-70">
          <mxGeometry relative="1" as="geometry">
            <Array as="points">
              <mxPoint x="680" y="670" />
              <mxPoint x="930" y="670" />
              <mxPoint x="930" y="680" />
            </Array>
          </mxGeometry>
        </mxCell>
        <mxCell id="2tfb3EqtFTx625eSX2Tw-55" value="P2P_VerificationDetileInfo_&lt;br&gt;HISTORY&lt;br&gt;（核销任务明细历史表）" style="text;html=1;fontSize=10;fontStyle=1;verticalAlign=middle;align=center;rounded=0;shadow=0;sketch=0;arcSize=12;strokeWidth=1;fillColor=#f5f5f5;strokeColor=#666666;fontColor=#333333;" vertex="1" parent="1">
          <mxGeometry x="600" y="550" width="160" height="50" as="geometry" />
        </mxCell>
        <mxCell id="2tfb3EqtFTx625eSX2Tw-72" style="edgeStyle=orthogonalEdgeStyle;rounded=0;orthogonalLoop=1;jettySize=auto;html=1;exitX=0.5;exitY=1;exitDx=0;exitDy=0;fontSize=10;" edge="1" parent="1" source="2tfb3EqtFTx625eSX2Tw-56" target="2tfb3EqtFTx625eSX2Tw-70">
          <mxGeometry relative="1" as="geometry" />
        </mxCell>
        <mxCell id="2tfb3EqtFTx625eSX2Tw-56" value="P2P_ChargebackDetileInfo_&lt;br&gt;HISTORY&lt;br&gt;（退单明细历史报表）" style="text;html=1;fontSize=10;fontStyle=1;verticalAlign=middle;align=center;rounded=0;shadow=0;sketch=0;arcSize=12;strokeWidth=1;fillColor=#f5f5f5;fontColor=#333333;strokeColor=#666666;" vertex="1" parent="1">
          <mxGeometry x="770" y="550" width="160" height="50" as="geometry" />
        </mxCell>
        <mxCell id="2tfb3EqtFTx625eSX2Tw-73" style="edgeStyle=orthogonalEdgeStyle;rounded=0;orthogonalLoop=1;jettySize=auto;html=1;exitX=0.5;exitY=1;exitDx=0;exitDy=0;entryX=0.5;entryY=0;entryDx=0;entryDy=0;entryPerimeter=0;fontSize=10;" edge="1" parent="1" source="2tfb3EqtFTx625eSX2Tw-57" target="2tfb3EqtFTx625eSX2Tw-70">
          <mxGeometry relative="1" as="geometry">
            <Array as="points">
              <mxPoint x="1020" y="620" />
              <mxPoint x="1035" y="620" />
            </Array>
          </mxGeometry>
        </mxCell>
        <mxCell id="2tfb3EqtFTx625eSX2Tw-57" value="P2P_VerificationCashInfo_&lt;br&gt;HISTORY&lt;br&gt;（核销报表-现金历史表）" style="text;strokeColor=#666666;fillColor=#f5f5f5;html=1;fontSize=10;fontStyle=1;verticalAlign=middle;align=center;rounded=0;shadow=0;sketch=0;arcSize=12;strokeWidth=1;fontColor=#333333;" vertex="1" parent="1">
          <mxGeometry x="940" y="550" width="160" height="50" as="geometry" />
        </mxCell>
        <mxCell id="2tfb3EqtFTx625eSX2Tw-74" style="edgeStyle=orthogonalEdgeStyle;rounded=0;orthogonalLoop=1;jettySize=auto;html=1;exitX=0.5;exitY=1;exitDx=0;exitDy=0;entryX=0;entryY=0;entryDx=130;entryDy=45;entryPerimeter=0;fontSize=10;" edge="1" parent="1" source="2tfb3EqtFTx625eSX2Tw-58" target="2tfb3EqtFTx625eSX2Tw-70">
          <mxGeometry relative="1" as="geometry" />
        </mxCell>
        <mxCell id="2tfb3EqtFTx625eSX2Tw-58" value="P2P_VerificationSamplewineInfo_&lt;br&gt;HISTORY&lt;br&gt;（核销报表-样酒历史表）" style="text;strokeColor=#666666;fillColor=#f5f5f5;html=1;fontSize=10;fontStyle=1;verticalAlign=middle;align=center;rounded=0;shadow=0;sketch=0;arcSize=12;strokeWidth=1;fontColor=#333333;" vertex="1" parent="1">
          <mxGeometry x="1110" y="550" width="200" height="50" as="geometry" />
        </mxCell>
        <mxCell id="2tfb3EqtFTx625eSX2Tw-70" value="覆盖七天内的数据" style="shape=note;whiteSpace=wrap;html=1;backgroundOutline=1;darkOpacity=0.05;rounded=0;shadow=0;sketch=0;fontSize=10;strokeColor=#d6b656;strokeWidth=1;fillColor=#fff2cc;" vertex="1" parent="1">
          <mxGeometry x="970" y="640" width="130" height="60" as="geometry" />
        </mxCell>
        <mxCell id="2tfb3EqtFTx625eSX2Tw-77" value="按天定存" style="shape=note;whiteSpace=wrap;html=1;backgroundOutline=1;darkOpacity=0.05;rounded=0;shadow=0;sketch=0;fontSize=10;strokeColor=#d6b656;strokeWidth=1;fillColor=#fff2cc;" vertex="1" parent="1">
          <mxGeometry x="345.5" y="520" width="86" height="75" as="geometry" />
        </mxCell>
      </root>
    </mxGraphModel>
  </diagram>
</mxfile>
